<svg xmlns="http://www.w3.org/2000/svg" fill="none" viewBox="0 0 48 48"><g clip-path="url(#a)"><path fill="#000" d="M43.584 37.407a26 26 0 0 1-2.58 4.64q-2.039 2.902-3.325 4.018-1.99 1.83-4.273 1.881c-1.093 0-2.411-.311-3.946-.942q-2.309-.941-4.249-.94-2.035-.001-4.369.94-2.337.945-3.775.992-2.19.095-4.37-1.931-1.39-1.215-3.476-4.16-2.237-3.145-3.677-7.304Q4 30.11 4 25.897q0-4.827 2.087-8.316 1.64-2.8 4.372-4.422a11.76 11.76 0 0 1 5.91-1.668c1.16 0 2.682.359 4.572 1.064 1.885.707 3.095 1.066 3.626 1.066.396 0 1.741-.42 4.02-1.256 2.156-.776 3.975-1.097 5.465-.97 4.039.326 7.073 1.918 9.09 4.786-3.611 2.188-5.398 5.253-5.362 9.185.032 3.063 1.143 5.612 3.327 7.635a10.9 10.9 0 0 0 3.324 2.181 36 36 0 0 1-.847 2.225M34.322.961c0 2.4-.877 4.642-2.625 6.716-2.11 2.467-4.661 3.892-7.428 3.667a8 8 0 0 1-.056-.91c0-2.304 1.003-4.77 2.785-6.787Q28.333 2.115 30.39 1.1 32.445.098 34.272 0q.051.482.05.96"/></g><defs><clipPath id="a"><path fill="#fff" d="M0 0h48v48H0z"/></clipPath></defs></svg>