<svg xmlns="http://www.w3.org/2000/svg" fill="none" viewBox="0 0 48 48"><path fill="#fff" d="M44.594 35.36c-7.433-3.6-8.617-9.157-8.67-9.57-.064-.498-.136-.891.414-1.399.531-.49 2.887-1.95 3.541-2.406 1.08-.755 1.556-1.51 1.206-2.437-.246-.642-.843-.883-1.472-.883q-.299 0-.59.066c-1.187.257-2.34.852-3.007 1.013q-.121.03-.245.033c-.356 0-.491-.158-.457-.586.084-1.298.26-3.831.056-6.198-.281-3.255-1.331-4.869-2.576-6.295-.602-.692-3.398-3.665-8.794-3.665s-8.19 2.973-8.787 3.657c-1.249 1.427-2.297 3.04-2.576 6.296-.205 2.366-.02 4.898.056 6.197.024.408-.101.587-.457.587a1 1 0 0 1-.245-.034c-.666-.16-1.819-.755-3.006-1.013a2.7 2.7 0 0 0-.59-.066c-.631 0-1.226.245-1.471.883-.351.928.122 1.682 1.206 2.438.654.456 3.01 1.913 3.54 2.406.55.507.48.9.415 1.4-.052.418-1.238 5.975-8.67 9.568-.435.21-1.176.657.13 1.379 2.05 1.133 3.415 1.012 4.476 1.695.9.58.368 1.832 1.023 2.283.804.556 3.182-.04 6.255.975 2.575.85 4.14 3.248 8.707 3.248s6.177-2.41 8.707-3.248c3.066-1.014 5.449-.42 6.255-.975.653-.451.122-1.703 1.023-2.283 1.06-.683 2.424-.562 4.476-1.695 1.303-.713.563-1.16.127-1.37"/><path fill="#000" d="M47.828 34.937c-.333-.908-.968-1.394-1.692-1.796a4 4 0 0 0-.368-.193l-.656-.333c-2.255-1.196-4.016-2.705-5.238-4.494a10 10 0 0 1-.899-1.595c-.104-.298-.1-.467-.024-.622q.112-.18.288-.3c.387-.256.787-.517 1.058-.692.483-.313.866-.56 1.113-.736.925-.648 1.573-1.336 1.978-2.105a4.2 4.2 0 0 0 .207-3.482c-.613-1.614-2.138-2.616-3.985-2.616q-.587 0-1.158.122a8 8 0 0 0-.303.072 34 34 0 0 0-.106-3.417c-.348-4.032-1.76-6.146-3.231-7.832a12.9 12.9 0 0 0-3.286-2.644C29.293.998 26.76.35 24 .35s-5.281.648-7.517 1.924a12.8 12.8 0 0 0-3.291 2.65c-1.472 1.685-2.884 3.802-3.232 7.83a35 35 0 0 0-.107 3.417q-.149-.038-.301-.07a5.5 5.5 0 0 0-1.16-.123c-1.847 0-3.374 1.002-3.985 2.616a4.2 4.2 0 0 0 .202 3.485c.406.77 1.054 1.458 1.98 2.105.245.172.629.42 1.112.737.261.169.643.417 1.017.665.13.084.242.196.326.327.079.16.08.334-.036.653a10 10 0 0 1-.884 1.561c-1.194 1.748-2.904 3.23-5.087 4.417-1.156.613-2.358 1.023-2.866 2.403-.383 1.041-.132 2.226.84 3.225.357.373.771.686 1.227.929.947.52 1.955.924 3 1.2.216.056.421.148.606.272.355.31.305.777.777 1.462.237.354.538.66.888.903.99.684 2.104.727 3.284.773 1.066.04 2.274.087 3.653.542.572.189 1.165.554 1.853.981 1.652 1.016 3.914 2.406 7.698 2.406s6.062-1.397 7.727-2.417c.683-.42 1.272-.781 1.828-.965 1.38-.457 2.588-.502 3.654-.542 1.18-.046 2.293-.089 3.284-.773.414-.29.759-.666 1.01-1.104.34-.578.331-.982.65-1.264a1.9 1.9 0 0 1 .57-.26 13.3 13.3 0 0 0 3.04-1.212c.485-.26.92-.6 1.288-1.008l.013-.015c.912-.977 1.141-2.127.767-3.143m-3.364 1.808c-2.051 1.134-3.415 1.012-4.476 1.696-.901.58-.368 1.831-1.023 2.283-.804.555-3.182-.04-6.254.975-2.534.838-4.15 3.247-8.708 3.247s-6.135-2.404-8.71-3.253c-3.066-1.015-5.45-.42-6.255-.975-.654-.452-.123-1.703-1.023-2.284-1.062-.683-2.426-.561-4.476-1.689-1.306-.721-.566-1.168-.13-1.379 7.432-3.599 8.618-9.156 8.67-9.568.064-.5.135-.892-.414-1.4-.531-.49-2.887-1.95-3.54-2.406-1.082-.755-1.558-1.51-1.208-2.437.246-.642.844-.883 1.472-.883q.299 0 .59.066c1.187.257 2.34.852 3.006 1.013q.12.03.245.033c.356 0 .48-.179.456-.586-.076-1.3-.26-3.831-.055-6.198.281-3.256 1.33-4.869 2.576-6.295.598-.686 3.41-3.659 8.788-3.659 5.377 0 8.197 2.96 8.796 3.644 1.247 1.427 2.297 3.04 2.575 6.296.205 2.366.028 4.9-.055 6.197-.029.428.1.587.456.587q.125-.003.245-.034c.667-.16 1.82-.755 3.007-1.013q.292-.065.59-.066c.632 0 1.227.245 1.472.883.35.928-.123 1.682-1.206 2.438-.653.456-3.01 1.913-3.54 2.405-.55.508-.479.9-.415 1.4.053.418 1.238 5.976 8.67 9.569.44.22 1.18.666-.126 1.393"/></svg>